<svg width="164" height="50" viewBox="0 0 164 50" fill="none" xmlns="http://www.w3.org/2000/svg">
<path fill-rule="evenodd" clip-rule="evenodd" d="M27.1788 0H155.976C160.408 0 164 3.16033 164 7.05881V42.9411C164 46.8394 160.408 50 155.976 50H0.301758L27.1788 0ZM30.4199 35.3069C28.8815 34.0495 28.1123 32.3438 28.1123 30.19C28.1123 28.0229 28.9016 26.3173 30.4801 25.0731C32.072 23.8156 34.2928 23.1869 37.1421 23.1869H44.1451V22.9862C44.1451 18.8793 42.0852 16.8259 37.965 16.8259C36.6808 16.8259 35.5835 17.1336 34.6739 17.749C33.7777 18.3643 33.1623 19.1536 32.8279 20.1168C32.7476 20.3843 32.5871 20.5181 32.3463 20.5181H29.7577C29.4501 20.5181 29.3096 20.3843 29.3363 20.1168C29.5504 18.2573 30.4333 16.7657 31.9851 15.642C33.5369 14.5183 35.5301 13.9564 37.965 13.9564C41.1486 13.9564 43.59 14.7457 45.289 16.3242C46.9879 17.8894 47.8376 20.1101 47.8376 22.9862V36.1497C47.8376 36.4172 47.6972 36.5511 47.416 36.5511H45.1688C44.9009 36.5511 44.7472 36.4172 44.7071 36.1497L44.3458 33.8822C44.1855 34.1364 43.8308 34.4908 43.2825 34.9456C42.7338 35.3874 42.1855 35.7483 41.6369 36.0295C40.1921 36.7918 38.5602 37.173 36.7407 37.173C34.0787 37.173 31.9717 36.5511 30.4199 35.3069ZM31.8045 30.19C31.8045 31.5278 32.246 32.5445 33.1289 33.2401C34.0253 33.9358 35.2962 34.2836 36.9414 34.2836C37.8243 34.2836 38.6739 34.1364 39.49 33.8421C40.3195 33.5344 40.9948 33.1799 41.5167 32.7786C42.0516 32.3639 42.5266 31.9425 42.9414 31.5144C43.3561 31.0863 43.6571 30.7318 43.8444 30.4509C44.0448 30.1566 44.1451 29.9961 44.1451 29.9693V26.0765H37.1421C33.5837 26.0765 31.8045 27.4477 31.8045 30.19ZM53.5886 14.9798V36.1497C53.5886 36.4172 53.7222 36.5511 53.99 36.5511H56.8794C57.1468 36.5511 57.2807 36.4172 57.2807 36.1497V22.3642L57.5215 21.8425C57.9228 21.0666 58.7989 20.1836 60.1503 19.1937C60.8191 18.7121 61.7153 18.3041 62.839 17.9697C63.9629 17.6219 65.1934 17.448 66.5314 17.448H67.7554C68.0362 17.448 68.1766 17.3075 68.1766 17.0266V14.5584C68.1766 14.2908 68.0362 14.1571 67.7554 14.1571H66.1098C64.9328 14.1571 63.8088 14.3176 62.7386 14.6387C61.6818 14.9464 60.8256 15.2875 60.1701 15.662C59.528 16.0232 58.9397 16.458 58.4044 16.9664C57.8828 17.4747 57.5482 17.8225 57.401 18.0098L57.08 18.4713L56.6989 14.9798C56.6722 14.6989 56.5249 14.5584 56.2575 14.5584H53.99C53.7222 14.5584 53.5886 14.6989 53.5886 14.9798ZM70.8776 34.7048V8.19736C70.8776 7.92983 71.0115 7.78935 71.279 7.776H74.1684C74.4362 7.776 74.5697 7.91644 74.5697 8.19736V15.1805C76.3492 14.3644 78.4026 13.9564 80.7303 13.9564C83.8204 13.9564 86.3419 14.9597 88.295 16.9663C90.2485 18.9596 91.2248 21.8224 91.2248 25.5547C91.2248 29.2737 90.2416 32.1432 88.2752 34.1631C86.3221 36.1699 83.7402 37.173 80.5296 37.173C78.7769 37.173 77.0917 36.9658 75.4728 36.5511C73.854 36.1363 72.6769 35.7285 71.9413 35.3271L70.8776 34.7048ZM74.5697 33.0595C74.5697 33.0863 74.804 33.2 75.2721 33.4007C75.7403 33.588 76.4358 33.7819 77.3591 33.9826C78.2954 34.1833 79.2187 34.2836 80.1283 34.2836C82.4022 34.2836 84.2016 33.5545 85.5258 32.0963C86.8505 30.6248 87.5125 28.4376 87.5125 25.5346C87.5125 22.6317 86.857 20.4579 85.5461 19.0131C84.2351 17.5549 82.5228 16.8259 80.4091 16.8259C78.2954 16.8259 76.3492 17.2339 74.5697 18.0499V33.0595ZM92.0597 14.8193C92.0597 14.8728 92.0731 14.9263 92.0998 14.9798L96.6549 28.0831C97.6447 30.9325 98.7283 32.9191 99.9056 34.0428C101.083 35.1665 102.742 35.7285 104.882 35.7285C104.387 37.7617 103.792 39.1596 103.096 39.9223C102.401 40.6846 101.391 41.0661 100.066 41.0661C98.755 41.0661 97.4173 40.7918 96.0529 40.2432C95.7718 40.1363 95.6313 40.25 95.6313 40.5843V42.5911C95.6313 42.8052 95.7718 42.9856 96.0529 43.1329L96.6146 43.3336C97.8186 43.7483 99.1364 43.9555 100.568 43.9555C102.615 43.9555 104.267 43.3 105.524 41.9891C106.795 40.6915 107.812 38.6045 108.574 35.7285L114.052 14.9798C114.079 14.9263 114.093 14.8728 114.093 14.8193C114.093 14.6454 113.965 14.5584 113.711 14.5584H110.962C110.628 14.5584 110.42 14.6989 110.34 14.9798L105.624 32.8589C104.273 32.8589 103.21 32.4977 102.434 31.7753C101.658 31.0395 100.969 29.8222 100.367 28.1232L95.7919 14.9798C95.7118 14.6989 95.5111 14.5584 95.1899 14.5584H92.4207C92.18 14.5584 92.0597 14.6454 92.0597 14.8193ZM116.974 28.1232V8.19736C116.974 7.91644 117.108 7.776 117.375 7.776H120.265C120.532 7.776 120.666 7.91644 120.666 8.19736V14.5584H129.054C129.321 14.5584 129.455 14.6989 129.455 14.9798V17.0266C129.455 17.3075 129.321 17.448 129.054 17.448H120.666V28.1232C120.666 30.1566 121.134 31.695 122.071 32.7385C123.021 33.7685 124.332 34.2836 126.004 34.2836C127.475 34.2836 128.793 34.0829 129.957 33.6816L130.539 33.4609C130.806 33.3538 130.94 33.4675 130.94 33.802V35.8086C130.94 36.036 130.806 36.2165 130.539 36.3504C129.161 36.899 127.515 37.173 125.602 37.173C122.967 37.173 120.867 36.3439 119.301 34.685C117.75 33.0261 116.974 30.8388 116.974 28.1232ZM135.547 34.1833C137.514 36.2031 139.989 37.2134 142.972 37.2134C145.955 37.2134 148.296 36.6247 149.995 35.4473C151.694 34.2702 152.818 32.6917 153.366 30.7118C153.447 30.3907 153.313 30.2302 152.965 30.2302H150.376C150.202 30.2302 150.035 30.364 149.875 30.6315C148.51 33.0929 146.316 34.3237 143.293 34.3237C141.38 34.3237 139.801 33.7083 138.557 32.4776C137.313 31.2469 136.577 29.3874 136.35 26.8992H153.165C153.714 26.8992 153.988 26.6249 153.988 26.0765V25.0531C153.988 21.7087 152.985 19.0265 150.978 17.0065C148.985 14.9731 146.403 13.9564 143.233 13.9564C140.076 13.9564 137.514 14.953 135.547 16.9463C133.594 18.9262 132.618 21.7889 132.618 25.5347C132.618 29.267 133.594 32.1498 135.547 34.1833ZM150.296 24.0096H136.35C136.577 21.6552 137.32 19.8693 138.577 18.6519C139.835 17.4346 141.393 16.8259 143.253 16.8259C145.126 16.8259 146.738 17.4881 148.089 18.8124C149.44 20.1234 150.176 21.8558 150.296 24.0096Z" fill="#1490F9"/>
</svg>
