<?xml version="1.0" encoding="UTF-8" standalone="no"?>
<!DOCTYPE svg PUBLIC "-//W3C//DTD SVG 1.1//EN" "http://www.w3.org/Graphics/SVG/1.1/DTD/svg11.dtd">
<svg width="100%" height="100%" viewBox="0 0 641 183" version="1.1" xmlns="http://www.w3.org/2000/svg" xmlns:xlink="http://www.w3.org/1999/xlink" xml:space="preserve" xmlns:serif="http://www.serif.com/" style="fill-rule:evenodd;clip-rule:evenodd;stroke-linecap:square;stroke-miterlimit:3;">
    <g id="Artboard1" transform="matrix(1.0679,0,0,0.911636,0,0)">
        <rect x="0" y="0" width="600" height="200" style="fill:none;"/>
        <g transform="matrix(0.359609,0,0,0.425242,-283.95,-571.403)">
            <path d="M1319.37,1442.6L1319.37,1512.91C1325.79,1506.49 1332.73,1501.67 1340.2,1498.46C1347.66,1495.25 1355.65,1493.64 1364.16,1493.64C1382.65,1493.64 1398.36,1500.63 1411.29,1514.6C1424.23,1528.58 1430.69,1546.5 1430.69,1568.38C1430.69,1589.47 1424.01,1607.12 1410.64,1621.31C1397.27,1635.5 1381.43,1642.6 1363.12,1642.6C1354.96,1642.6 1347.36,1641.14 1340.33,1638.24C1333.3,1635.33 1326.31,1630.58 1319.37,1623.98L1319.37,1638.95L1284.08,1638.95L1284.08,1442.6L1319.37,1442.6ZM1356.74,1526.45C1345.54,1526.45 1336.25,1530.27 1328.87,1537.91C1321.49,1545.55 1317.8,1555.53 1317.8,1567.86C1317.8,1580.44 1321.49,1590.62 1328.87,1598.39C1336.25,1606.16 1345.54,1610.05 1356.74,1610.05C1367.59,1610.05 1376.72,1606.1 1384.14,1598.2C1391.57,1590.3 1395.28,1580.23 1395.28,1567.99C1395.28,1555.84 1391.63,1545.87 1384.34,1538.11C1377.05,1530.34 1367.85,1526.45 1356.74,1526.45Z" style="fill:rgb(67,191,245);fill-rule:nonzero;"/>
            <g transform="matrix(1,0,0,1,4.91111,0)">
                <path d="M1548.81,1497.29L1584.23,1497.29L1584.23,1638.95L1548.81,1638.95L1548.81,1623.98C1541.86,1630.58 1534.9,1635.33 1527.91,1638.24C1520.92,1641.14 1513.35,1642.6 1505.19,1642.6C1486.87,1642.6 1471.03,1635.5 1457.66,1621.31C1444.3,1607.12 1437.61,1589.47 1437.61,1568.38C1437.61,1546.5 1444.08,1528.58 1457.01,1514.6C1469.95,1500.63 1485.66,1493.64 1504.15,1493.64C1512.65,1493.64 1520.64,1495.25 1528.11,1498.46C1535.57,1501.67 1542.47,1506.49 1548.81,1512.91L1548.81,1497.29ZM1511.44,1526.45C1500.41,1526.45 1491.26,1530.34 1483.96,1538.11C1476.67,1545.87 1473.03,1555.84 1473.03,1567.99C1473.03,1580.23 1476.74,1590.3 1484.16,1598.2C1491.58,1606.1 1500.72,1610.05 1511.57,1610.05C1522.77,1610.05 1532.06,1606.16 1539.43,1598.39C1546.81,1590.62 1550.5,1580.44 1550.5,1567.86C1550.5,1555.53 1546.81,1545.55 1539.43,1537.91C1532.06,1530.27 1522.72,1526.45 1511.44,1526.45Z" style="fill:rgb(67,191,245);fill-rule:nonzero;"/>
            </g>
            <g transform="matrix(1,0,0,1,-0.296866,0)">
                <path d="M1611.83,1497.29L1642.3,1497.29L1642.3,1515.12C1645.6,1508.09 1649.98,1502.75 1655.45,1499.11C1660.92,1495.46 1666.91,1493.64 1673.42,1493.64C1678.02,1493.64 1682.84,1494.85 1687.87,1497.29L1676.8,1527.88C1672.64,1525.8 1669.21,1524.76 1666.52,1524.76C1661.05,1524.76 1656.43,1528.14 1652.65,1534.91C1648.87,1541.69 1646.99,1554.97 1646.99,1574.76L1647.12,1581.66L1647.12,1638.95L1611.83,1638.95L1611.83,1497.29Z" style="fill:rgb(67,191,245);fill-rule:nonzero;"/>
            </g>
            <g transform="matrix(1,0,0,1,-0.296866,0)">
                <path d="M1837.29,1526.71L1822.84,1535.7C1810.34,1519.12 1793.28,1510.83 1771.67,1510.83C1754.39,1510.83 1740.05,1516.38 1728.63,1527.49C1717.22,1538.6 1711.51,1552.1 1711.51,1567.99C1711.51,1578.32 1714.14,1588.04 1719.39,1597.15C1724.64,1606.27 1731.85,1613.34 1741,1618.38C1750.16,1623.41 1760.43,1625.93 1771.8,1625.93C1792.63,1625.93 1809.65,1617.64 1822.84,1601.06L1837.29,1610.57C1830.52,1620.72 1821.43,1628.6 1810.01,1634.2C1798.6,1639.8 1785.6,1642.6 1771.02,1642.6C1748.62,1642.6 1730.05,1635.48 1715.29,1621.24C1700.53,1607.01 1693.15,1589.69 1693.15,1569.29C1693.15,1555.58 1696.6,1542.84 1703.5,1531.07C1710.4,1519.31 1719.89,1510.13 1731.95,1503.54C1744.02,1496.94 1757.52,1493.64 1772.45,1493.64C1781.82,1493.64 1790.87,1495.07 1799.6,1497.94C1808.32,1500.8 1815.72,1504.53 1821.8,1509.13C1827.88,1513.73 1833.04,1519.59 1837.29,1526.71Z" style="fill:rgb(69,190,245);fill-rule:nonzero;"/>
            </g>
            <g transform="matrix(1,0,0,1,-0.296866,0)">
                <path d="M1989.47,1497.29L1989.47,1638.95L1971.5,1638.95L1971.5,1614.6C1963.86,1623.89 1955.29,1630.88 1945.78,1635.57C1936.28,1640.25 1925.88,1642.6 1914.6,1642.6C1894.54,1642.6 1877.42,1635.33 1863.23,1620.79C1849.04,1606.25 1841.94,1588.56 1841.94,1567.73C1841.94,1547.33 1849.1,1529.88 1863.42,1515.38C1877.75,1500.89 1894.98,1493.64 1915.12,1493.64C1926.75,1493.64 1937.27,1496.11 1946.69,1501.06C1956.11,1506.01 1964.38,1513.43 1971.5,1523.33L1971.5,1497.29L1989.47,1497.29ZM1916.55,1511.22C1906.39,1511.22 1897.02,1513.71 1888.42,1518.7C1879.83,1523.69 1872.99,1530.7 1867.91,1539.73C1862.84,1548.76 1860.3,1558.31 1860.3,1568.38C1860.3,1578.36 1862.86,1587.91 1867.98,1597.02C1873.1,1606.14 1879.98,1613.24 1888.62,1618.31C1897.26,1623.39 1906.52,1625.93 1916.42,1625.93C1926.4,1625.93 1935.86,1623.41 1944.8,1618.38C1953.74,1613.34 1960.62,1606.53 1965.44,1597.94C1970.26,1589.34 1972.67,1579.66 1972.67,1568.9C1972.67,1552.49 1967.26,1538.78 1956.46,1527.75C1945.65,1516.73 1932.35,1511.22 1916.55,1511.22Z" style="fill:rgb(69,190,245);fill-rule:nonzero;"/>
            </g>
            <g transform="matrix(1,0,0,1,-5.50484,0)">
                <path d="M2022.35,1497.29L2040.45,1497.29L2040.45,1521.76C2046.79,1512.74 2053.3,1506.14 2059.98,1501.97C2069.18,1496.42 2078.86,1493.64 2089.02,1493.64C2095.88,1493.64 2102.39,1494.98 2108.55,1497.67C2114.71,1500.37 2119.75,1503.95 2123.65,1508.42C2127.56,1512.89 2130.94,1519.29 2133.81,1527.62C2139.89,1516.51 2147.48,1508.07 2156.6,1502.3C2165.71,1496.53 2175.52,1493.64 2186.02,1493.64C2195.83,1493.64 2204.49,1496.11 2212,1501.06C2219.51,1506.01 2225.09,1512.91 2228.73,1521.76C2232.38,1530.62 2234.2,1543.9 2234.2,1561.61L2234.2,1638.95L2215.58,1638.95L2215.58,1561.61C2215.58,1546.42 2214.49,1535.98 2212.32,1530.29C2210.15,1524.61 2206.44,1520.03 2201.19,1516.56C2195.94,1513.08 2189.67,1511.35 2182.38,1511.35C2173.52,1511.35 2165.43,1513.95 2158.09,1519.16C2150.76,1524.37 2145.4,1531.31 2142.01,1539.99C2138.63,1548.67 2136.93,1563.17 2136.93,1583.48L2136.93,1638.95L2118.84,1638.95L2118.84,1566.42C2118.84,1549.33 2117.77,1537.71 2115.64,1531.6C2113.52,1525.48 2109.81,1520.57 2104.51,1516.88C2099.22,1513.19 2092.92,1511.35 2085.63,1511.35C2077.21,1511.35 2069.33,1513.89 2062,1518.96C2054.66,1524.04 2049.24,1530.88 2045.72,1539.47C2042.21,1548.07 2040.45,1561.22 2040.45,1578.92L2040.45,1638.95L2022.35,1638.95L2022.35,1497.29Z" style="fill:rgb(69,190,245);fill-rule:nonzero;"/>
            </g>
            <g transform="matrix(1,0,0,1,-5.50484,0)">
                <path d="M2259.54,1497.29L2277.64,1497.29L2277.64,1523.33C2284.84,1513.43 2293.13,1506.01 2302.51,1501.06C2311.88,1496.11 2322.34,1493.64 2333.89,1493.64C2354.03,1493.64 2371.26,1500.89 2385.58,1515.38C2399.9,1529.88 2407.06,1547.33 2407.06,1567.73C2407.06,1588.56 2399.97,1606.25 2385.78,1620.79C2371.58,1635.33 2354.46,1642.6 2334.41,1642.6C2323.12,1642.6 2312.75,1640.25 2303.29,1635.57C2293.83,1630.88 2285.28,1623.89 2277.64,1614.6L2277.64,1690.77L2259.54,1690.77L2259.54,1497.29ZM2332.45,1511.22C2316.66,1511.22 2303.35,1516.73 2292.55,1527.75C2281.74,1538.78 2276.34,1552.49 2276.34,1568.9C2276.34,1579.66 2278.74,1589.34 2283.56,1597.94C2288.38,1606.53 2295.28,1613.34 2304.26,1618.38C2313.25,1623.41 2322.73,1625.93 2332.72,1625.93C2342.52,1625.93 2351.75,1623.39 2360.38,1618.31C2369.02,1613.24 2375.9,1606.14 2381.02,1597.02C2386.14,1587.91 2388.7,1578.36 2388.7,1568.38C2388.7,1558.31 2386.16,1548.76 2381.09,1539.73C2376.01,1530.7 2369.17,1523.69 2360.58,1518.7C2351.99,1513.71 2342.61,1511.22 2332.45,1511.22Z" style="fill:rgb(69,190,245);fill-rule:nonzero;"/>
            </g>
        </g>
        <g transform="matrix(0.271183,0,0,0.295001,-75.1849,-587.211)">
            <path d="M932.321,2464.5L941.119,2464.5L941.119,2496.88L975.549,2464.5L987.221,2464.5L945.753,2503.22L990.447,2550.78L979.01,2550.78L941.119,2510.55L941.119,2550.78L932.321,2550.78L932.321,2464.5Z" style="fill:rgb(255,125,75);fill-rule:nonzero;"/>
            <path d="M1038.54,2464.5L1078.78,2550.78L1069.51,2550.78L1055.96,2522.4L1018.78,2522.4L1005.29,2550.78L995.668,2550.78L1036.43,2464.5L1038.54,2464.5ZM1037.49,2482.8L1022.65,2514.07L1052.15,2514.07L1037.49,2482.8Z" style="fill:rgb(255,125,75);fill-rule:nonzero;"/>
            <path d="M1083.59,2472.89L1083.59,2464.5L1130.92,2464.5L1130.92,2472.89L1111.69,2472.89L1111.69,2550.78L1102.89,2550.78L1102.89,2472.89L1083.59,2472.89Z" style="fill:rgb(255,125,75);fill-rule:nonzero;"/>
            <path d="M1143.18,2464.5L1151.87,2464.5L1151.87,2500.69L1195.74,2500.69L1195.74,2464.5L1204.42,2464.5L1204.42,2550.78L1195.74,2550.78L1195.74,2509.14L1151.87,2509.14L1151.87,2550.78L1143.18,2550.78L1143.18,2464.5Z" style="fill:rgb(255,125,75);fill-rule:nonzero;"/>
            <path d="M1221.43,2550.78L1233.69,2464.5L1235.1,2464.5L1270.17,2535.3L1304.89,2464.5L1306.3,2464.5L1318.68,2550.78L1310.17,2550.78L1301.73,2489.08L1271.23,2550.78L1269.06,2550.78L1238.14,2488.61L1229.76,2550.78L1221.43,2550.78Z" style="fill:rgb(255,125,75);fill-rule:nonzero;"/>
            <path d="M1371,2464.5L1411.24,2550.78L1401.97,2550.78L1388.42,2522.4L1351.23,2522.4L1337.74,2550.78L1328.12,2550.78L1368.89,2464.5L1371,2464.5ZM1369.94,2482.8L1355.1,2514.07L1384.61,2514.07L1369.94,2482.8Z" style="fill:rgb(255,125,75);fill-rule:nonzero;"/>
            <path d="M1424.67,2550.78L1424.67,2464.5L1426.54,2464.5L1483.91,2530.55L1483.91,2464.5L1492.41,2464.5L1492.41,2550.78L1490.48,2550.78L1433.58,2485.56L1433.58,2550.78L1424.67,2550.78Z" style="fill:rgb(255,125,75);fill-rule:nonzero;"/>
            <path d="M1513.47,2550.78L1513.47,2464.5L1531.36,2464.5C1544.26,2464.5 1553.63,2465.54 1559.45,2467.61C1567.82,2470.55 1574.36,2475.63 1579.08,2482.86C1583.79,2490.1 1586.14,2498.72 1586.14,2508.73C1586.14,2517.37 1584.28,2524.98 1580.54,2531.55C1576.81,2538.12 1571.96,2542.97 1566,2546.09C1560.03,2549.22 1551.67,2550.78 1540.92,2550.78L1513.47,2550.78ZM1521.74,2542.63L1531.71,2542.63C1543.64,2542.63 1551.91,2541.89 1556.52,2540.4C1563.01,2538.29 1568.12,2534.49 1571.83,2528.99C1575.55,2523.5 1577.4,2516.78 1577.4,2508.85C1577.4,2500.52 1575.39,2493.4 1571.36,2487.5C1567.33,2481.59 1561.72,2477.55 1554.53,2475.36C1549.13,2473.71 1540.24,2472.89 1527.84,2472.89L1521.74,2472.89L1521.74,2542.63Z" style="fill:rgb(255,125,75);fill-rule:nonzero;"/>
            <path d="M1603.15,2464.5L1611.78,2464.5L1611.78,2516.59C1611.78,2522.77 1611.89,2526.62 1612.13,2528.14C1612.56,2531.55 1613.55,2534.39 1615.12,2536.68C1616.68,2538.97 1619.09,2540.88 1622.33,2542.43C1625.58,2543.97 1628.84,2544.74 1632.13,2544.74C1634.98,2544.74 1637.72,2544.14 1640.34,2542.93C1642.96,2541.71 1645.15,2540.03 1646.91,2537.88C1648.67,2535.73 1649.96,2533.13 1650.78,2530.08C1651.37,2527.89 1651.66,2523.39 1651.66,2516.59L1651.66,2464.5L1660.28,2464.5L1660.28,2516.59C1660.28,2524.29 1659.53,2530.52 1658.02,2535.27C1656.52,2540.02 1653.51,2544.16 1648.99,2547.68C1644.48,2551.2 1639.01,2552.95 1632.6,2552.95C1625.64,2552.95 1619.67,2551.29 1614.71,2547.97C1609.74,2544.65 1606.42,2540.25 1604.74,2534.77C1603.68,2531.41 1603.15,2525.35 1603.15,2516.59L1603.15,2464.5Z" style="fill:rgb(255,125,75);fill-rule:nonzero;"/>
            <path d="M1718.17,2491.54L1709.9,2491.54C1710.14,2483.02 1712.98,2476.02 1718.44,2470.55C1723.89,2465.07 1730.63,2462.33 1738.64,2462.33C1746.58,2462.33 1753.01,2464.89 1757.91,2470.02C1762.82,2475.14 1765.27,2481.18 1765.27,2488.14C1765.27,2493.03 1764.1,2497.62 1761.75,2501.9C1759.41,2506.18 1754.85,2511.97 1748.09,2519.29L1726.62,2542.46L1766.45,2542.46L1766.45,2550.78L1707.85,2550.78L1740.82,2515.18C1747.5,2508.03 1751.85,2502.72 1753.87,2499.26C1755.88,2495.8 1756.89,2492.15 1756.89,2488.32C1756.89,2483.47 1755.08,2479.3 1751.46,2475.8C1747.84,2472.3 1743.41,2470.55 1738.17,2470.55C1732.66,2470.55 1728.08,2472.38 1724.42,2476.06C1720.77,2479.74 1718.68,2484.9 1718.17,2491.54Z" style="fill:rgb(255,125,75);fill-rule:nonzero;"/>
            <path d="M1774.66,2507.67C1774.66,2496.3 1775.88,2487.5 1778.32,2481.28C1780.77,2475.06 1784.22,2470.35 1788.68,2467.14C1793.13,2463.94 1798.12,2462.33 1803.63,2462.33C1809.23,2462.33 1814.29,2463.95 1818.83,2467.17C1823.36,2470.4 1826.95,2475.24 1829.59,2481.69C1832.23,2488.14 1833.55,2496.8 1833.55,2507.67C1833.55,2518.51 1832.25,2527.13 1829.65,2533.54C1827.05,2539.95 1823.46,2544.79 1818.88,2548.06C1814.31,2551.32 1809.23,2552.95 1803.63,2552.95C1798.12,2552.95 1793.15,2551.37 1788.74,2548.2C1784.32,2545.04 1780.87,2540.32 1778.38,2534.04C1775.9,2527.76 1774.66,2518.97 1774.66,2507.67ZM1782.81,2507.85C1782.81,2517.59 1783.68,2524.95 1785.42,2529.93C1787.16,2534.92 1789.73,2538.7 1793.13,2541.28C1796.54,2543.86 1800.13,2545.15 1803.93,2545.15C1807.76,2545.15 1811.34,2543.89 1814.66,2541.37C1817.98,2538.85 1820.51,2535.07 1822.23,2530.02C1824.38,2523.88 1825.45,2516.49 1825.45,2507.85C1825.45,2499.17 1824.5,2492.06 1822.58,2486.53C1820.66,2481 1818.01,2476.95 1814.63,2474.39C1811.25,2471.83 1807.68,2470.55 1803.93,2470.55C1800.1,2470.55 1796.5,2471.83 1793.13,2474.39C1789.77,2476.95 1787.21,2480.72 1785.45,2485.71C1783.69,2490.69 1782.81,2498.07 1782.81,2507.85Z" style="fill:rgb(255,125,75);fill-rule:nonzero;"/>
            <path d="M1851.32,2491.54L1843.05,2491.54C1843.28,2483.02 1846.13,2476.02 1851.58,2470.55C1857.04,2465.07 1863.77,2462.33 1871.79,2462.33C1879.73,2462.33 1886.15,2464.89 1891.06,2470.02C1895.97,2475.14 1898.42,2481.18 1898.42,2488.14C1898.42,2493.03 1897.25,2497.62 1894.9,2501.9C1892.55,2506.18 1888,2511.97 1881.23,2519.29L1859.77,2542.46L1899.59,2542.46L1899.59,2550.78L1841,2550.78L1873.96,2515.18C1880.65,2508.03 1885,2502.72 1887.01,2499.26C1889.03,2495.8 1890.03,2492.15 1890.03,2488.32C1890.03,2483.47 1888.22,2479.3 1884.61,2475.8C1880.99,2472.3 1876.56,2470.55 1871.32,2470.55C1865.81,2470.55 1861.22,2472.38 1857.57,2476.06C1853.91,2479.74 1851.83,2484.9 1851.32,2491.54Z" style="fill:rgb(255,125,75);fill-rule:nonzero;"/>
            <path d="M1955.14,2462.33L1956.9,2462.33L1956.9,2522.45L1967.34,2522.45L1967.34,2530.72L1956.9,2530.72L1956.9,2550.78L1948.28,2550.78L1948.28,2530.72L1907.04,2530.72L1955.14,2462.33ZM1948.28,2522.45L1948.28,2486.5L1922.88,2522.45L1948.28,2522.45Z" style="fill:rgb(255,125,75);fill-rule:nonzero;"/>
        </g>
        <g transform="matrix(0.240889,0,0,0.284854,-181.516,-247.992)">
            <path d="M1154.36,1193.07C1169.41,1229.16 1226.81,1230.6 1256.74,1214.57C1296.89,1193.07 1290.22,1138.77 1279.74,1102.11C1308.93,1112.27 1348.8,1130.91 1354.56,1164.58C1360.28,1198 1339.53,1230.73 1326.09,1259.79C1314.06,1285.75 1298.98,1331.38 1331.77,1350.13C1345.61,1355.82 1357.01,1338.91 1366.42,1324.09C1375.82,1309.3 1384.82,1293.54 1390.99,1277.1C1466.51,1633.16 719.454,1642.97 825.926,1266.03C833.601,1238.81 844.662,1212.63 857.43,1187.44C854.506,1222.64 858.236,1260.56 881.071,1288.73C900.621,1312.85 941.403,1325.58 950.878,1285.84C959.392,1250.11 937.639,1211.21 934.646,1175.98C930.882,1131.61 929.767,1093.78 964.752,1068.55C967.187,1088.08 972.383,1103.19 977.932,1110.86C987.526,1124.13 1000.96,1136.99 1018.08,1138.16C1050.83,1140.42 1081.51,1115.25 1095.47,1087.06C1101.91,1074.03 1104.2,1058.43 1100.05,1044.35C1094.7,1026.22 1079.05,1020.99 1067.02,1008.29C1055.25,995.853 1046.63,984.243 1043.21,967.111C1039.68,947.131 1049.27,927.82 1061.2,912.429C1067.74,904.017 1075.66,896.857 1083.18,889.337C1078.59,921.458 1070.31,964.281 1106.35,983.102C1135.34,998.237 1168.3,980.273 1197.63,996.273C1235.29,1016.83 1205.78,1068.98 1190.99,1094.59C1174.01,1123.98 1137.77,1153.23 1154.36,1193.07Z" style="fill:rgb(255,125,75);"/>
        </g>
        <g transform="matrix(-0.334542,0,0,0.3956,413.297,-367.441)">
            <path d="M998.529,1415.29C1080.24,1412.53 1158.5,1377.99 1182.95,1310.44C1156.65,1294.99 1132.7,1279.77 1132.7,1279.77L1090.6,1327.82L1075.42,1317.91L1018.6,1366.55L1002.82,1354.64L979.273,1389.11C985.56,1398.56 991.986,1407.27 998.529,1415.29Z" style="fill:rgb(229,99,49);"/>
        </g>
        <g transform="matrix(0.334542,0,0,0.3956,-317.9,-379.453)">
            <path d="M1114.38,1434.11C1111.62,1431.52 1108.85,1428.84 1106.06,1426.08C1106.06,1426.08 1254.95,1308.86 1266.16,1303.81L1278.97,1311.99L1305.22,1279.46C1305.22,1279.46 1347.09,1327.4 1406.45,1330.12C1373.3,1430.85 1223.69,1466.77 1114.38,1434.11Z" style="fill:rgb(228,98,48);"/>
        </g>
        <g id="Layer3" transform="matrix(0.334542,0,0,0.3956,-396.732,-190.436)">
            <g>
                <g transform="matrix(0.993298,0,0,0.993298,1178.97,621.749)">
                    <path d="M434.392,284.109C354.181,367.115 170.228,370.881 90.23,290.386C102.883,280.282 112.754,275.059 119.846,274.716C133.805,274.042 135.332,290.816 144.397,287.323C150.44,284.994 160.896,282.354 175.767,279.401C179.056,277.086 185.875,280.063 196.226,288.332C211.751,300.736 219.156,300.432 237.143,290.351C249.134,283.631 258.682,283.631 265.786,290.351C273.619,292.948 284.985,288.506 299.884,277.026C322.232,259.806 311.792,295.209 329.89,282.846C341.955,274.604 351.9,267.491 359.725,261.508C363.176,257.897 367.053,257.897 371.356,261.508C377.811,266.924 381.106,252.532 399.792,261.508C410.201,266.507 421.734,274.041 434.392,284.109Z" style="fill:rgb(188,58,8);"/>
                </g>
                <g transform="matrix(0.993298,0,0,0.993298,1178.97,621.022)">
                    <path d="M194.503,343.17L197.101,226.256L303.231,226.256L305.88,345.448C269.015,351.307 230.292,350.586 194.503,343.17Z" style="fill:rgb(255,229,218);"/>
                </g>
                <g transform="matrix(0.993298,0,0,0.993298,1178.97,621.749)">
                    <path d="M291.126,199.723L208.874,199.723L202.241,173.191L297.759,173.191L291.126,199.723Z" style="fill:rgb(255,227,217);fill-rule:nonzero;"/>
                </g>
                <g transform="matrix(0.993298,0,0,0.993298,1178.97,621.749)">
                    <path d="M206.553,190.437L208.874,199.723L291.126,199.723L293.447,190.437L206.553,190.437Z" style="fill:rgb(239,109,59);fill-rule:nonzero;"/>
                </g>
                <g transform="matrix(0.993298,0,0,0.993298,1178.97,621.749)">
                    <path d="M208.874,199.723L291.126,199.723L208.874,199.723ZM203.899,179.824L202.241,173.191L297.759,173.191L296.101,179.824L203.899,179.824Z" style="fill:rgb(255,187,161);fill-rule:nonzero;"/>
                </g>
                <g transform="matrix(0.993298,0,0,0.993298,1178.97,621.749)">
                    <rect x="202.241" y="159.924" width="95.518" height="13.266" style="fill:rgb(255,227,217);"/>
                </g>
                <g transform="matrix(0.993298,0,0,0.993298,1178.97,621.749)">
                    <path d="M197.266,130.738L302.734,130.738L316,136.787L184,136.787L197.266,130.738Z" style="fill:rgb(235,105,55);fill-rule:nonzero;"/>
                </g>
                <g transform="matrix(0.993298,0,0,0.993298,1178.97,621.749)">
                    <rect x="214.43" y="136.787" width="70.975" height="23.137" style="fill:rgb(255,227,217);"/>
                </g>
                <g transform="matrix(0.993298,0,0,0.993298,1178.97,621.749)">
                    <rect x="214.678" y="120.125" width="70.975" height="10.613" style="fill:rgb(255,229,218);"/>
                </g>
                <g transform="matrix(0.993298,0,0,0.993298,1178.97,621.749)">
                    <path d="M250.216,76.327L259.655,92.143L241.239,92.409L250.216,76.327Z" style="fill:rgb(255,229,218);fill-rule:nonzero;"/>
                </g>
                <g transform="matrix(0.993298,0,0,0.993298,1178.97,621.749)">
                    <path d="M250.166,126.523C232.339,126.523 214.513,133.567 214.513,123.774C214.513,104.188 241.902,88.286 250.166,88.286C257.189,88.286 285.819,104.188 285.819,123.774C285.819,133.567 267.992,126.523 250.166,126.523Z" style="fill:rgb(255,229,218);fill-rule:nonzero;"/>
                </g>
                <g transform="matrix(0.993298,0,0,0.993298,1178.97,621.749)">
                    <rect x="223.136" y="141.352" width="11.94" height="18.573" style="fill:white;"/>
                    <path d="M235.075,151.945L235.075,141.352L223.136,141.352L223.136,159.924L225.075,159.924C227.999,156.636 231.374,153.926 235.075,151.945Z" style="fill:rgb(254,124,74);fill-rule:nonzero;"/>
                </g>
                <g transform="matrix(0.993298,0,0,0.993298,1178.97,621.749)">
                    <rect x="244.362" y="141.352" width="11.94" height="18.573" style="fill:white;"/>
                    <path d="M256.302,146.638L256.302,141.352L244.362,141.352L244.362,156.969C247.694,152.611 251.751,149.074 256.302,146.638Z" style="fill:rgb(254,124,74);fill-rule:nonzero;"/>
                </g>
                <g transform="matrix(0.993298,0,0,0.993298,1178.97,621.749)">
                    <rect x="264.261" y="141.352" width="11.94" height="18.573" style="fill:white;"/>
                    <path d="M276.201,142.658L276.201,141.352L264.261,141.352L264.261,152.989C267.593,148.631 271.651,145.094 276.201,142.658Z" style="fill:rgb(254,124,74);fill-rule:nonzero;"/>
                </g>
                <g transform="matrix(0.993385,0,0,0.992414,1179.13,621.938)">
                    <g transform="matrix(1,0,0,0.947192,0,10.5469)">
                        <path d="M208.703,199.71L290.938,199.708L302.333,226.256L197.667,226.256L208.703,199.71Z" style="fill:rgb(255,174,142);fill-rule:nonzero;"/>
                    </g>
                    <g transform="matrix(1,0,0,1,0,0.0638136)">
                        <path d="M196.935,226.256L303.065,226.256C303.084,225.861 303.155,225.701 303.052,225.469C295.384,208.246 277.507,199.723 250,199.723C222.528,199.723 204.607,208.267 196.925,225.447C196.812,225.699 197.044,226 196.935,226.256Z" style="fill:rgb(255,229,218);fill-rule:nonzero;"/>
                    </g>
                </g>
                <g transform="matrix(0.993298,0,0,0.993298,1178.97,621.749)">
                    <rect x="270.894" y="120.125" width="5.307" height="6.633" style="fill:rgb(233,103,53);"/>
                    <rect x="247.015" y="120.125" width="5.307" height="6.633" style="fill:rgb(233,103,53);"/>
                    <rect x="223.136" y="120.125" width="5.307" height="6.633" style="fill:rgb(233,103,53);"/>
                </g>
                <g transform="matrix(0.993298,0,0,0.993298,1178.97,621.749)">
                    <path d="M266.014,348.466L266.014,300.656L276.592,300.656L276.592,347.965C273.07,348.19 269.543,348.357 266.014,348.466ZM245.487,348.44L245.487,300.656L256.065,300.656L256.065,348.618C252.535,348.617 249.008,348.558 245.487,348.44ZM222.745,346.847L222.745,300.656L233.323,300.656L233.323,347.796C229.784,347.54 226.257,347.223 222.745,346.847Z" style="fill:rgb(245,115,65);"/>
                    <rect x="223.136" y="278.658" width="53.065" height="10.613" style="fill:rgb(245,115,65);"/>
                </g>
                <g transform="matrix(0.993298,0,0,0.993298,1178.97,621.749)">
                    <path d="M260.055,266.77L238.251,266.342L223.136,250.623L223.563,228.82L239.282,213.704L261.086,214.131L276.201,229.851L275.774,251.654L260.055,266.77Z" style="fill:rgb(245,115,65);fill-rule:nonzero;"/>
                    <circle cx="249.668" cy="240.237" r="20.547" style="fill:white;"/>
                    <circle cx="249.668" cy="240.237" r="7.048" style="fill:rgb(255,146,104);stroke:rgb(159,159,159);stroke-width:0.16px;"/>
                    <path d="M248.817,240.964L246.846,244.377L242.535,251.845" style="fill:rgb(245,115,65);fill-rule:nonzero;stroke:rgb(245,115,65);stroke-width:0.66px;"/>
                    <path d="M249.055,241.253L252.468,243.224L256.489,245.545" style="fill:rgb(245,115,65);fill-rule:nonzero;stroke:rgb(245,115,65);stroke-width:1.33px;"/>
                    <path d="M255.934,246.993L257.466,244.34L258.998,246.993L255.934,246.993Z" style="fill:rgb(245,115,65);fill-rule:nonzero;"/>
                    <path d="M241.805,250.854L243.758,251.982L241.805,253.109L241.805,250.854Z" style="fill:rgb(245,115,65);fill-rule:nonzero;"/>
                </g>
            </g>
        </g>
    </g>
</svg>
