<?xml version="1.0" encoding="iso-8859-1"?>
<!-- Generator: Adobe Illustrator 25.0.0, SVG Export Plug-In . SVG Version: 6.00 Build 0)  -->
<svg version="1.1" id="Woordmerk" xmlns="http://www.w3.org/2000/svg" xmlns:xlink="http://www.w3.org/1999/xlink" x="0px" y="0px"
	 viewBox="0 0 692.589 162.761" style="enable-background:new 0 0 692.589 162.761;" xml:space="preserve">
<g>
	<path style="fill:#05005C;" d="M63.053,54.899h33.585c12.514,0,20.184,6.459,20.184,16.874v0.888
		c0,10.496-7.67,16.954-20.184,16.954H75.163v18.246h-12.11V54.899z M96.315,78.878c5.329,0,8.154-2.18,8.154-6.217v-0.888
		c0-3.956-2.826-6.136-8.154-6.136H75.163v13.241H96.315z"/>
	<path style="fill:#05005C;" d="M172.769,88.646l15.42,17.358v1.856h-13.886l-16.47-18.973h-11.061v18.973h-12.11V54.899h33.585
		c12.594,0,20.184,6.459,20.184,17.116v0.888C188.431,81.461,182.78,87.274,172.769,88.646z M176.079,71.773
		c0-4.037-2.826-6.136-8.154-6.136h-21.152v13.241h21.152c5.329,0,8.154-2.18,8.154-6.217V71.773z"/>
	<path style="fill:#05005C;" d="M205.384,81.784v-0.727c0-16.47,12.433-27.127,31.567-27.127c19.215,0,31.486,10.657,31.486,27.127
		v0.727c0,16.47-12.271,27.046-31.486,27.046C217.817,108.83,205.384,98.254,205.384,81.784z M256.085,81.946v-0.969
		c0-10.092-6.782-15.824-19.134-15.824c-12.353,0-19.215,5.732-19.215,15.824v0.969c0,10.091,6.782,15.663,19.215,15.663
		C249.465,97.608,256.085,92.037,256.085,81.946z"/>
	<path style="fill:#05005C;" d="M285.067,90.423v-0.808h11.949v0.808c0,5.167,5.248,7.912,15.178,7.912
		c8.8,0,13.483-1.938,13.483-5.571v-0.564c0-2.907-2.261-4.279-8.8-5.248l-13.482-1.938c-11.545-1.695-17.438-6.378-17.438-14.371
		v-0.808c0-10.011,9.123-15.905,25.027-15.905c16.712,0,25.835,6.136,25.835,17.6v0.727h-11.949v-0.727
		c0-4.763-4.602-7.104-13.886-7.104c-8.315,0-12.756,1.776-12.756,5.086v0.646c0,2.503,2.099,3.714,8.073,4.602l13.563,1.938
		c12.353,1.776,18.084,6.459,18.084,14.936v0.808c0,10.334-9.446,16.389-26.239,16.389
		C294.271,108.83,285.067,102.452,285.067,90.423z"/>
	<path style="fill:#05005C;" d="M357,54.899h12.11v21.072h29.307V54.899h12.11v52.962h-12.11V86.79H369.11v21.071H357V54.899z"/>
	<path style="fill:#05005C;" d="M428.77,81.784v-0.727c0-16.47,12.434-27.127,31.567-27.127c19.215,0,31.486,10.657,31.486,27.127
		v0.727c0,16.47-12.271,27.046-31.486,27.046C441.204,108.83,428.77,98.254,428.77,81.784z M479.471,81.946v-0.969
		c0-10.092-6.781-15.824-19.134-15.824s-19.215,5.732-19.215,15.824v0.969c0,10.091,6.781,15.663,19.215,15.663
		C472.851,97.608,479.471,92.037,479.471,81.946z"/>
	<path style="fill:#05005C;" d="M548.175,88.646l15.42,17.358v1.856h-13.887l-16.47-18.973h-11.061v18.973h-12.11V54.899h33.586
		c12.595,0,20.184,6.459,20.184,17.116v0.888C563.837,81.461,558.186,87.274,548.175,88.646z M551.485,71.773
		c0-4.037-2.825-6.136-8.154-6.136h-21.152v13.241h21.152c5.329,0,8.154-2.18,8.154-6.217V71.773z"/>
	<path style="fill:#05005C;" d="M583.211,54.899h47.068v10.657h-34.958v10.496h33.344v10.576h-33.344v10.576h34.958v10.657h-47.068
		V54.899z"/>
</g>
</svg>
